<mxfile host="app.diagrams.net" modified="2024-05-15T17:08:21.821Z" agent="Mozilla/5.0 (Windows NT 10.0; Win64; x64) AppleWebKit/537.36 (KHTML, like Gecko) Chrome/124.0.0.0 Safari/537.36 Edg/124.0.0.0" version="24.4.0" etag="j5aS1tbT1LXxBMJtrz0X" type="github">
  <diagram name="PÃ¡gina-1" id="R8NCf_XqKpT7X7baar0G">
    <mxGraphModel>
      <root>
        <mxCell id="0" />
        <mxCell id="1" parent="0" />
      </root>
    </mxGraphModel>
  </diagram>
</mxfile>
